<svg width="54" height="54" viewBox="0 0 54 54" fill="none" xmlns="http://www.w3.org/2000/svg">
    <path d="M26.6875 0C19.636 0.0850748 12.8972 2.9241 7.91065 7.91065C2.9241 12.8972 0.0850748 19.636 0 26.6875C0.0850748 33.739 2.9241 40.4778 7.91065 45.4643C12.8972 50.4509 19.636 53.2899 26.6875 53.375C33.739 53.2899 40.4778 50.4509 45.4643 45.4643C50.4509 40.4778 53.2899 33.739 53.375 26.6875C53.2899 19.636 50.4509 12.8972 45.4643 7.91065C40.4778 2.9241 33.739 0.0850748 26.6875 0ZM41.9375 28.5938H28.5938V41.9375H24.7812V28.5938H11.4375V24.7812H24.7812V11.4375H28.5938V24.7812H41.9375V28.5938Z" fill="#F2DFE6"/>
</svg>