<svg width="93" height="105" viewBox="0 0 93 105" fill="none" xmlns="http://www.w3.org/2000/svg">
    <path fill-rule="evenodd" clip-rule="evenodd" d="M50.6138 0.413922C51.2057 -0.257678 52.1187 -0.0273769 52.6727 0.503823C53.0327 0.610123 53.3827 0.768225 53.7127 0.977425C54.4587 0.881725 55.2398 0.881724 55.9718 0.908524C56.1488 0.809024 56.3397 0.720422 56.5467 0.644322C58.0247 0.103522 59.3347 0.378222 60.4147 1.10232C60.9357 0.609922 61.5918 0.300923 62.4308 0.347623C63.1798 0.389423 63.7137 0.742022 64.1707 1.20632C64.6267 0.548422 65.3647 0.079023 66.2827 0.013623C67.5667 -0.077677 68.8007 0.437422 69.8237 1.23482C70.4197 0.550922 71.2328 0.157823 72.1378 0.154023C72.7338 0.0458229 73.3628 0.0885249 73.9308 0.260125C74.7558 0.509325 75.4797 0.976124 76.0567 1.58212C76.9688 0.707924 78.0857 0.0790237 79.3737 0.170724C81.0407 0.291124 82.4228 1.51722 83.0648 3.02622C84.1928 3.47832 85.2347 4.12312 86.1048 5.04252C86.1507 5.09092 86.1957 5.14162 86.2417 5.19262C86.7107 5.36572 87.1527 5.61102 87.5417 5.93422C88.7728 6.95952 89.0478 8.44312 88.6398 9.89702C88.6968 10.1297 88.7458 10.3664 88.7897 10.6029C89.9437 10.7783 90.9917 11.4443 91.5867 12.5285C92.4027 14.0164 92.2418 15.9776 91.3587 17.3981C90.9798 18.0091 90.4977 18.5239 89.9557 18.9741C90.5677 20.3648 90.2747 22.0243 89.2878 23.1491C89.0478 23.5369 88.7518 23.8869 88.4198 24.2037C88.7868 25.6416 88.1348 27.125 86.8327 27.8933L86.7218 28.172C86.7028 28.2183 86.6837 28.2644 86.6647 28.3101C86.6497 28.3692 86.6327 28.4265 86.6147 28.4842C86.5837 28.9944 86.4157 29.4951 86.0827 29.9668C85.3997 30.9336 84.5537 31.5641 84.1057 32.6926L84.0607 32.8112C83.8677 33.3453 83.2447 33.7221 82.7137 33.5573C85.6607 39.6105 87.2057 46.3461 88.2657 52.947C88.7947 56.2401 89.2028 59.5447 89.5338 62.8617L89.8587 66.1647C90.1438 69.1007 90.3978 72.0467 90.3997 74.9927C90.4037 81.6567 88.4987 88.0667 84.4088 93.3697C80.5397 98.3827 75.0657 102.016 68.8817 103.447C62.4977 104.923 55.0088 104.341 49.2827 100.964C47.5947 99.9707 49.0737 97.5817 50.7917 98.3807C54.0427 99.8947 57.3467 101.019 60.9507 101.271C64.4647 101.518 67.9867 101.078 71.3177 99.9277C76.8298 98.0237 81.5197 94.0357 84.5347 89.0687C86.0197 86.6217 87.0958 83.9647 87.6678 81.1577C88.3808 77.6597 88.2738 74.0437 88.0117 70.5007L87.9937 70.2587C87.4757 63.4317 86.7937 56.5632 85.6908 49.8044C84.7158 43.8276 83.2168 37.9719 81.2708 32.2458C80.5088 31.5746 79.6557 31.0192 78.7437 30.5973C72.0617 30.3181 65.3677 30.3997 58.6947 30.8609C53.0037 31.2567 47.3397 31.9265 41.7197 32.9026L41.1177 33.0084C39.8727 33.2301 38.4917 33.3569 37.3187 33.858C36.3127 34.2892 35.9057 35.1177 35.6517 36.1362C35.0137 38.7125 34.9168 41.5321 34.8088 44.174C34.7038 46.7565 34.9417 49.3606 34.7347 51.9346C34.5597 54.0882 34.0087 56.2926 32.4127 57.8505C31.5787 58.6661 30.5517 59.112 29.5887 59.7317C28.9657 60.1307 28.7008 60.5427 28.7817 61.2827C28.9548 62.9017 30.2587 64.9407 28.7937 66.3277C28.5367 66.5707 28.0907 66.6027 27.8368 66.3277C27.2327 65.6707 26.3987 65.1697 25.6817 64.6387C25.3817 64.4197 25.6317 63.9927 25.9717 64.1447C26.4197 64.3457 26.8757 64.5817 27.3427 64.7887C26.3117 63.9397 24.8457 63.5227 23.6247 63.2757C23.0097 63.1527 22.3632 63.1167 21.723 63.1747C21.2498 63.4007 20.766 63.6097 20.2822 63.8147C19.6674 64.0727 19.0463 64.3067 18.4209 64.5287C16.2512 66.2977 15.216 69.1747 15.6681 71.9877C15.9153 73.5407 16.6315 75.2297 17.9815 76.1367C19.5808 77.2097 21.723 76.7497 23.4507 77.5467C25.0697 78.2917 26.0537 79.7997 26.7917 81.3587L27.0987 82.0087C27.7827 83.4457 28.4867 84.8457 29.4217 86.1547C30.5037 87.6697 31.8277 89.0307 33.2727 90.1997C33.9737 90.7657 34.7217 91.2747 35.4937 91.7377L35.7047 91.8627C36.4867 92.3217 37.0467 92.7587 37.0987 93.7287C37.1157 94.0677 36.9028 94.3757 36.6278 94.5517C35.4448 95.3017 34.2677 94.3627 33.2837 93.7077C32.2207 93.0017 31.2047 92.2077 30.2647 91.3407C28.4777 89.6967 26.9307 87.7437 25.7417 85.6237C24.8347 84.0097 24.3197 81.7377 22.8867 80.4857C22.0125 79.7227 20.7765 79.7167 19.6843 79.5767C18.6681 79.4467 17.7068 79.2347 16.8026 78.7337C13.1244 76.6907 12.085 71.7427 12.9575 67.9197C13.1054 67.2747 13.3126 66.6467 13.5682 66.0427C12.1992 66.2707 10.661 64.8547 11.2167 63.4257C11.2589 63.3177 11.3075 63.2167 11.354 63.1127C10.4519 62.5187 9.73994 61.6187 9.40194 60.4417C9.22864 59.8327 9.20335 59.2177 9.29415 58.6238C8.85685 58.3303 8.49565 57.9264 8.26325 57.4297C7.53645 57.0936 6.89205 56.5908 6.50755 55.8723C5.97515 54.8808 6.04275 53.9678 6.44845 53.1456C6.39135 53.0423 6.33645 52.9366 6.28365 52.8286C4.79415 51.8841 3.75475 50.2565 3.87305 48.4515C3.91105 47.8534 4.05894 47.3145 4.28714 46.8286C4.26814 46.7673 4.24915 46.7037 4.23225 46.6424C2.98575 46.0083 1.95475 44.9666 1.58715 43.5759C1.21955 42.1765 1.65265 40.7816 2.51885 39.708C1.25125 38.7804 0.488545 37.4848 0.951245 35.5254C1.13925 34.7288 1.51744 34.0036 2.02874 33.3928C2.02654 33.374 2.02235 33.355 2.01815 33.3358L1.89955 33.2437C0.334648 32.0084 -0.56485 30.4341 0.39565 28.498C0.82655 27.6274 1.44134 27.0206 2.16394 26.6212L2.19985 26.507C1.68225 25.3974 1.50685 24.1653 1.86395 22.8697C2.15545 21.8026 2.84635 20.9528 3.72945 20.3887C3.67025 19.9108 3.67875 19.4017 3.77375 18.8498C3.93225 17.918 4.39485 17.1043 5.07095 16.5273C5.09635 16.4045 5.12795 16.2842 5.16395 16.1636C5.39205 15.4262 5.81884 14.6251 6.31324 14.031C6.72094 13.5386 7.17725 13.3589 7.73505 13.3399C7.70125 12.8857 7.72445 12.4248 7.81745 11.9577C8.10265 10.5165 9.01955 9.16152 10.3779 8.54653C10.9358 8.29502 11.523 8.22122 12.0892 8.28232C12.5709 7.26782 13.511 6.53252 14.6667 6.37402C15.1167 6.31062 15.535 6.31462 15.9195 6.37192C16.1371 6.27022 16.3632 6.17962 16.5998 6.09692C16.7561 6.04202 16.9146 5.99132 17.073 5.94082C17.6075 5.27712 18.311 4.74643 19.1329 4.42753C20.0815 4.05763 21.047 4.09553 21.9026 4.40613L22.1751 4.34912C22.6019 3.60932 23.2817 3.03662 24.3277 2.77662C25.5157 2.48292 26.7347 2.89292 27.6677 3.63912C27.6727 3.63912 27.6768 3.63912 27.6828 3.63682C28.1708 2.54412 29.0058 1.78333 30.4058 1.83613C31.2787 1.86993 32.0667 2.30342 32.6747 2.92062C33.0127 2.87812 33.3507 2.84002 33.6917 2.80222C34.0507 2.38142 34.4497 1.98853 34.8918 1.63553C35.6138 1.05623 36.5537 1.10292 37.0868 1.91852C37.2028 2.09612 37.3107 2.27572 37.4177 2.45542L37.9058 2.42162C38.4808 1.64592 39.2647 1.12182 40.3377 1.07972C41.3228 1.03932 42.0238 1.52142 42.5588 2.19542C42.9938 2.18482 43.4307 2.17662 43.8677 2.17012C44.3777 1.58042 44.9777 1.06052 45.6617 0.629323C46.1857 0.299623 46.9587 0.411822 47.3837 0.851422C47.6707 1.15032 47.9377 1.46222 48.1857 1.78522C48.8257 1.06742 49.6898 0.594622 50.6138 0.413922ZM19.5196 67.5277C20.5062 66.9657 21.8329 67.5747 22.7877 68.0527C23.9517 68.6337 25.1077 69.5107 25.8197 70.6097C26.7897 72.1057 24.5098 73.3147 23.4897 71.9727C22.8617 71.1467 22.3611 70.3137 21.6005 69.5907C20.9054 68.9277 19.8977 68.4837 19.4984 67.6087C19.4836 67.5787 19.4879 67.5447 19.5196 67.5277ZM20.2132 31.2074L20.2316 31.1546C20.5122 30.3868 19.2877 30.0558 19.0095 30.8173C18.5878 31.9715 19.0739 33.2263 20.2136 33.7246C20.5294 33.8629 20.8902 33.8149 21.0805 33.4972C21.2404 33.2299 21.1663 32.7666 20.8532 32.6299C20.212 32.3494 19.9972 31.8543 20.2132 31.2074ZM9.66304 29.0604C10.2759 28.5193 9.37654 27.6251 8.76664 28.1639C8.19744 28.6664 7.77535 29.3491 7.88495 30.1343C7.99675 30.9344 8.59994 31.4994 9.26014 31.8986C9.95984 32.322 10.5976 31.2259 9.89985 30.8036L9.82145 30.7556C9.52855 30.5737 9.18575 30.3234 9.13615 29.9654C9.08355 29.585 9.40524 29.288 9.66304 29.0604ZM13.1434 19.5133L13.1868 19.4814C13.8451 19.0113 13.2128 17.911 12.5469 18.3864C11.9363 18.8224 11.4466 19.3888 11.395 20.17C11.345 20.9291 11.7312 21.5873 12.2361 22.1213C12.7979 22.7155 13.6933 21.8176 13.1326 21.2248C12.5863 20.647 12.4794 20.0165 13.1434 19.5133Z" fill="black"/>
    <path fill-rule="evenodd" clip-rule="evenodd" d="M70.1287 83.5577C70.4527 82.9937 71.1987 82.4717 71.8817 82.5517C74.9407 82.9107 74.9347 86.6207 73.7537 88.7867C72.7067 90.7077 70.5387 91.8347 68.3697 91.6697C66.0907 91.4967 64.1487 90.1567 63.2947 88.0237C62.7297 86.6127 62.4687 84.0087 63.9717 83.0607C63.9997 83.0427 64.0457 83.0477 64.0677 83.0727C64.7887 83.9117 64.8167 85.1707 65.4477 86.1047C66.0347 86.9737 66.9467 87.6907 68.0147 87.8017C68.8127 87.8847 69.6197 87.5967 69.9317 86.8807C70.1007 86.4927 70.0817 86.2827 70.0177 86.0157L69.9607 85.7837C69.7607 84.9717 69.6707 84.3537 70.1287 83.5577ZM70.9457 67.2867C72.5417 68.2567 74.9717 70.5187 73.2557 72.9237C71.2357 75.0447 68.3267 72.6137 66.8937 71.5137C65.5647 70.6617 64.0717 72.8537 65.3047 73.8487C75.6617 81.5197 79.8647 67.5407 71.7527 66.1467C70.8597 65.9927 70.5277 66.9867 70.9457 67.2867ZM54.0987 60.6347C55.0777 59.165 57.3127 59.3814 57.8527 61.1257C58.1447 62.0707 57.7407 62.9197 57.7617 63.8627C57.7797 64.6597 57.7277 65.5477 57.4827 66.3197C56.9267 68.0797 55.3437 69.3227 53.4717 69.2717C51.6057 69.2207 49.9627 68.0387 49.1807 66.3747C48.3967 64.7047 48.5627 62.9757 49.1357 61.2777C49.1627 61.1957 49.2697 61.1567 49.3337 61.2247C50.0107 61.9447 50.5067 62.7037 51.0187 63.5097L51.5447 64.3357C51.9457 64.9577 52.5297 65.7517 53.2787 65.7017L53.3917 65.6907C53.5997 65.6727 53.5677 65.7137 53.7287 65.4297C53.8027 65.2987 53.7897 65.0547 53.8257 64.8987L53.8377 64.8467L53.8307 64.8187C53.8147 64.7437 53.7997 64.6017 53.7867 64.3557L53.7837 64.3017C53.7297 63.1527 53.4047 61.6757 54.0987 60.6347ZM78.9207 61.6137C78.7457 59.7337 81.3867 59.316 82.2657 60.7067C82.7237 61.4327 82.8567 62.3437 82.9577 63.2067L83.0057 63.6167C83.1097 64.5027 83.1507 65.4257 82.7657 66.2527C82.1597 67.5547 80.8427 68.2437 79.4207 68.1347C78.0637 68.0297 76.8247 67.2427 76.1717 66.0477C75.5897 64.9807 75.0117 62.8987 75.7187 61.7867C75.7607 61.7187 75.8467 61.7107 75.9047 61.7627C76.5727 62.3557 76.6817 63.4377 77.0787 64.2107C77.4887 65.0077 78.1097 65.7847 79.0517 65.9057C79.9527 66.0217 80.2967 65.5297 80.0667 64.6707C79.7707 63.5617 79.0327 62.8067 78.9207 61.6137ZM54.8127 49.4592L55.2447 49.2937C56.7247 48.7343 58.7567 48.0878 59.9607 49.2919C60.7027 50.0343 60.8437 51.1281 60.3137 52.0341C59.6717 53.1317 58.5207 53.1587 57.4087 53.3204C56.1437 53.5043 54.8567 53.8538 53.6797 54.3522C52.3527 54.9138 51.1217 55.6138 49.9157 56.3955C48.7697 57.1384 47.6267 58.3526 46.2547 58.5815C46.1987 58.5908 46.1357 58.5667 46.1207 58.5052C45.8087 57.1632 46.6747 55.8424 47.4477 54.7954C48.3827 53.5277 49.5157 52.4873 50.7827 51.5544C52.0047 50.6538 53.4007 50.003 54.8127 49.4592ZM81.6997 54.2309L81.8317 54.2077C82.7297 54.0582 83.5427 54.0927 84.2197 54.8038C84.7357 55.3464 84.9347 56.0495 84.6887 56.7669C84.4617 57.4286 83.9537 58.1009 83.2167 58.2395C80.7277 58.7079 77.9717 58.6305 75.4707 58.2759C74.3267 58.1135 73.1717 57.9149 72.0577 57.6017L71.5447 57.453C70.6137 57.1871 69.5487 56.9093 68.8727 56.2247C68.6297 55.9787 68.7697 55.6266 69.0607 55.5127C70.2397 55.0507 71.8567 55.2965 73.1137 55.2603C74.5767 55.2185 76.0417 55.1088 77.4977 54.9577C78.9207 54.8098 80.2967 54.4883 81.6997 54.2309Z" fill="black"/>
</svg>
