<svg width="269" height="271" viewBox="0 0 269 271" fill="none" xmlns="http://www.w3.org/2000/svg">
    <path fill-rule="evenodd" clip-rule="evenodd" d="M6.58081 149.266C10.4162 149.607 14.2516 149.948 18.0857 150.289C36.454 151.561 54.8135 154.216 73.0408 155.809C73.4946 155.14 74.3819 155.249 74.9222 155.715C76.7401 155.571 78.7792 154.311 80.4267 155.621C80.4801 155.614 80.5335 155.606 80.5869 155.602C83.521 150.502 85.5486 145.061 87.5166 139.613C88.7726 136.264 90.462 133.023 93.5855 130.773C98.9146 127.422 111.126 120.625 117.385 120.91C117.489 119.896 118.01 118.85 118.868 118.174C116.978 115.254 124.537 113.349 125.069 113.688C124.727 103.933 129.792 95.4624 140.96 93.5202C150.964 91.6322 165.194 91.3145 170.574 100.787C171.166 100.726 177.212 100.698 177.797 100.757C178.706 99.7139 188.695 109.602 184.601 113.045C221.2 127.712 242.011 125.962 252.141 167.197C253.51 171.07 253.61 175.309 255.056 179.096C260.201 189.98 264.374 201.569 265.413 213.411C267.921 213.993 268.21 218.001 265.304 218.58C264.194 218.801 263.266 219.104 262.457 219.678C263.09 229.383 260.499 251.553 258.866 251.483C255.538 261.081 240.69 263.789 230.179 260.417C231.991 263.506 230.179 265.447 230.179 267.098C192.356 268.394 151.002 267.647 113.19 269.425C108.352 269.362 103.265 270.501 98.4938 269.846C95.5852 269.214 95.5801 265.069 98.5307 264.557L85.6364 262.02C85.9249 261.922 80.3212 258.545 76.0854 252.235C72.1432 245.176 74.8269 236.656 73.0408 228.978C59.0887 227.944 44.9079 227.502 31.1097 225.362C29.2282 230.462 21.0833 224.363 18.495 221.909C18.4988 221.906 18.5014 221.902 18.5052 221.898C17.2517 221.587 16.2474 220.523 16.2131 219.264C15.3347 218.128 15.1503 216.524 15.9932 215.426C12.1311 195.238 6.24393 174.626 4.11584 154.249C3.36453 154.098 2.65515 153.8 2.05515 153.34L2.10345 153.295C1.08646 152.268 0.888123 150.494 2.58527 149.62C3.95312 148.915 5.09598 149.134 6.58081 149.266Z" fill="white"/>
    <path fill-rule="evenodd" clip-rule="evenodd" d="M169.877 98.5868C168.737 95.9919 164.885 97.0004 165.315 99.7265C165.572 101.359 166.559 103.084 167.445 104.515C168.167 105.68 168.991 106.816 170.107 107.688C168.119 109.369 166.057 110.987 163.942 112.524C161.633 114.201 159.206 115.746 156.697 117.167C154.498 118.412 152.198 119.516 150.125 120.938C148.196 122.259 146.44 123.848 145.547 125.923C144.595 128.132 145.008 130.414 145.709 132.622L145.79 132.872C146.505 135.059 147.746 137.695 146.026 139.756C145.151 140.806 143.879 141.549 142.781 142.388C141.803 143.133 140.886 143.944 140.046 144.815C138.213 146.713 136.722 148.849 135.781 151.229L135.697 151.446C134.891 153.553 134.301 156.134 135.391 158.202C135.703 158.795 136.712 158.602 136.887 158.025C137.284 156.717 137.262 155.347 137.594 154.02C137.94 152.641 138.514 151.332 139.266 150.092C140.717 147.695 142.685 145.648 145.009 143.918L145.704 143.404C147.517 142.057 149.183 140.628 149.551 138.397C149.944 136.01 148.889 133.736 148.21 131.478C147.737 129.903 147.583 128.393 148.094 126.972C148.719 127.895 149.57 128.771 150.244 129.553C151.586 131.11 152.94 132.659 154.292 134.209C155.677 135.799 157.029 137.415 158.315 139.072C158.891 139.814 159.461 140.56 160.028 141.306C160.455 141.866 161.05 142.427 161.515 142.999C161.402 143.305 161.411 143.659 161.615 143.909C164.082 146.928 167.592 140.629 168.507 139.037C170.371 135.795 171.759 132.351 173.629 129.109C175.566 125.75 177.773 122.481 180.232 119.413C181.719 117.558 183.387 115.815 184.747 113.901C187.954 116.535 192.173 118.301 196.047 119.901C200.305 121.66 204.728 123.097 209.093 124.622L210.383 125.077C217.904 127.735 225.61 130.657 231.861 135.38C239.207 140.932 243.554 148.668 246.789 156.679C250.514 165.902 253.595 175.373 256.467 184.84C257.937 189.682 259.332 194.547 260.643 199.428C261.799 203.728 262.756 208.07 264.094 212.326C261.381 212.239 258.288 213.19 255.972 213.465C245.417 214.716 235.004 216.712 225.039 220.166C223.809 220.593 223.452 221.707 223.72 222.609C223.011 222.427 222.301 222.244 221.591 222.064C222.369 220.984 221.998 219.054 221.937 217.857L221.933 217.775C221.87 216.181 221.679 214.584 221.555 212.993C221.32 209.96 221.013 206.948 220.605 203.931L220.5 203.176C220.038 199.894 219.696 196.594 219.191 193.317L219.132 192.943C219.374 192.104 219.656 191.276 219.951 190.452C220.739 188.256 221.851 186.189 222.826 184.063C222.941 183.812 222.547 183.669 222.363 183.818C220.713 185.163 219.401 186.87 218.348 188.655C218.33 188.571 218.314 188.487 218.295 188.403L218.174 187.866C217.878 186.56 217.518 185.184 216.632 184.124C216.538 184.012 216.352 183.988 216.263 184.124C215.416 185.422 215.321 187.067 215.19 188.544C215.043 190.216 215.025 191.909 215.051 193.586C215.101 196.861 215.356 200.146 215.559 203.416C215.758 206.63 216.15 209.803 216.654 212.985L216.75 213.582C216.996 215.096 217.198 216.63 217.523 218.134L217.615 218.544C217.788 219.29 217.895 220.341 218.241 221.215C209.341 218.967 200.427 216.769 191.497 214.611C185.042 213.049 178.58 211.513 172.122 209.965C171.782 209.408 171.357 208.889 170.827 208.425C169.083 206.894 166.77 206.21 164.649 207.389C164.477 207.486 164.462 207.73 164.649 207.823C165.055 208.023 165.462 208.23 165.863 208.446L161.984 207.494C159.086 206.782 156.152 205.892 153.186 205.396C147.721 202.953 141.842 201.185 136.086 199.437L135.409 199.229C132.46 198.319 129.412 197.299 126.366 196.795C124.136 196.426 121.52 196.871 120.624 198.941C119.489 199.618 118.421 200.415 117.39 201.198C116.645 201.764 115.93 202.366 115.204 202.951L115.071 203.058C114.477 203.524 114.007 203.837 113.861 204.58C113.786 204.963 114.055 205.482 114.578 205.432C116.176 205.276 117.475 203.598 118.559 202.596C119.397 201.821 120.241 201.02 121.005 200.168C121.45 200.388 122.062 200.349 122.345 199.862C123.816 197.34 127.845 199.087 130.074 199.686L133.266 200.542C134.863 200.971 136.46 201.402 138.053 201.84C142.432 203.045 146.789 204.393 151.208 205.5C150.812 205.893 150.867 206.593 151.618 206.86C155.076 208.09 158.871 208.725 162.465 209.569C164.733 210.102 167 210.638 169.267 211.178C169.655 211.747 169.935 212.393 170.053 213.144C170.485 215.906 169.651 219.092 168.839 221.763L168.715 222.163C168.048 224.31 167.065 226.943 165.02 228.299C164.52 228.629 163.885 228.859 163.244 228.911C159.241 227.044 155.238 225.178 151.232 223.314C150.489 222.969 149.803 223.436 149.636 223.992C148.224 223.782 146.815 223.451 145.532 223.057C143.375 222.393 141.691 221.128 139.67 220.253C135.757 218.559 131.763 220.64 128.26 222.22L127.452 222.579C125.882 223.27 122.613 224.596 121.861 222.708C121.131 220.881 123.436 218.929 124.924 218.107C126.699 217.126 128.765 216.602 130.77 216.165C131.915 215.915 133.073 215.711 134.239 215.563C135.562 215.395 136.928 215.42 138.201 215.031C138.833 214.838 138.931 213.928 138.201 213.777C136.241 213.373 133.902 213.814 131.857 214.264L130.787 214.503C128.727 214.962 126.646 215.536 124.768 216.45C123.404 217.114 121.962 218.124 121.022 219.361C120.204 218.673 119.187 218.696 118.128 218.951L117.552 219.096C116.603 219.334 115.834 219.499 114.91 219.333C114.786 218.724 114.66 218.115 114.527 217.506C113.21 211.517 111.766 205.551 110.173 199.617C107.424 189.381 104.244 179.257 100.657 169.238L100.298 168.236C99.4714 165.944 98.8053 163.447 97.4717 161.343C96.2106 159.351 94.1906 158.205 91.7905 157.598C89.0674 156.908 86.2046 156.548 83.4256 156.083C82.8065 155.979 82.1849 155.88 81.5645 155.778C82.0883 154.921 82.4798 153.947 82.8319 153.2L82.8942 153.071C83.6519 151.507 84.332 149.915 84.9893 148.313L85.48 147.11C86.666 144.211 87.8902 141.361 89.5581 138.651C91.3137 135.798 93.6427 133.466 96.5462 131.536C102.464 127.6 109.598 125.592 115.339 121.386C115.574 121.214 115.273 120.92 115.034 121.028C111.158 122.793 106.973 123.992 102.942 125.429L102.146 125.713C98.9591 126.858 95.7225 128.103 92.9651 129.957C89.8899 132.023 87.4669 134.589 85.6465 137.64C83.8528 140.648 82.7048 144.015 81.4399 147.228L81.1005 148.084C80.5907 149.368 80.0631 150.647 79.4593 151.896C78.9788 152.888 78.0838 154.02 77.677 155.153C76.5634 154.978 75.451 154.803 74.3361 154.635C50.2001 150.983 25.7945 148.838 1.33432 148.211C0.378357 148.187 -0.117462 149.013 0.0236511 149.77C2.37167 162.344 4.45779 174.962 6.74603 187.546C7.74524 193.039 8.7648 198.527 9.80722 204.012C10.3361 206.791 10.9463 209.56 11.4471 212.344C11.8501 214.591 12.1438 216.857 12.8366 219.052C13.4595 221.021 14.4143 222.919 15.9817 224.421C17.6712 226.04 20.0294 226.824 22.4041 227.194C28.4311 228.134 34.6132 228.517 40.6898 229.144L73.0382 232.478C72.5653 236.37 72.5297 240.202 72.7471 244.14L72.8704 246.29C72.9721 248.019 73.0928 249.751 73.3662 251.463C73.7107 253.609 74.7951 255.426 76.3918 257.03C77.8575 258.503 79.6385 259.76 81.3713 260.963C83.1701 262.213 85.0274 263.419 87.1428 264.193L87.4161 264.292C89.2721 264.948 92.7515 265.964 95.2864 265.593C94.9559 267.096 94.3139 268.714 94.8834 270.202C95.1466 270.894 96.1445 271.239 96.756 270.652C97.9662 269.485 98.0616 267.946 98.3476 266.425C98.6463 264.842 98.9031 263.255 99.132 261.663C99.5744 258.584 99.9189 255.478 100.023 252.373C100.131 249.186 100.089 245.993 99.8998 242.809C99.8032 241.173 99.6812 239.539 99.4523 237.914C99.3544 237.222 99.2553 236.528 99.1409 235.837C99.0989 235.585 99.0531 235.334 99.0036 235.083L101.907 235.38C106.359 235.83 110.814 236.236 115.297 236.3C115.827 236.308 116.237 236.088 116.504 235.769C116.787 236.189 117.283 236.49 117.992 236.487C124.253 236.466 130.084 234.611 135.778 232.425C138.65 231.323 141.475 230.129 144.351 229.037C147.034 228.017 149.902 227.289 152.521 226.14L159.402 229.41C159.452 229.571 159.517 229.723 159.585 229.851C160.034 230.678 160.918 231.128 161.819 231.467C162.685 231.792 163.582 231.893 164.455 231.811C169.674 234.289 174.894 236.764 180.117 239.233L185.341 241.7C195.75 246.61 206.118 251.6 216.593 256.395L217.364 256.747C220.982 258.39 224.866 260.056 228.881 261.299C228.953 262.22 228.908 263.116 228.823 264.089L228.802 264.301C228.682 265.454 228.426 266.896 229.445 267.716C229.976 268.143 230.923 268.144 231.284 267.502C231.939 266.336 231.351 264.498 231.144 263.232C231.07 262.781 230.98 262.318 230.848 261.869C235.45 263.11 240.193 263.712 244.877 263.015C249.437 262.337 252.969 259.734 255.816 256.551C258.822 253.191 260.957 249.277 262.103 245.079C263.407 240.304 263.492 235.372 263.461 230.479C263.429 225.271 263.216 220.035 262.517 214.861C263.283 214.698 264.133 214.558 264.907 214.606C265.29 215.162 266.034 215.396 266.707 215.323C268.168 216.784 264.461 218.277 263.276 218.65C262.864 218.78 262.908 219.386 263.383 219.367L263.682 219.355C265.513 219.266 267.404 218.983 268.481 217.441C269.343 216.206 269.084 214.743 268.056 213.734C267.377 207.917 265.753 202.251 264.242 196.575C262.759 191.006 261.109 185.47 259.361 179.963L258.577 177.498C255.825 168.864 252.948 160.159 249.151 151.867C247.255 147.727 245.071 143.663 242.111 140.053C239.351 136.688 236.093 133.808 232.348 131.349C225.367 126.763 217.174 123.992 209.125 121.352L208.765 121.235C204.594 119.869 200.433 118.485 196.309 117.003C192.662 115.694 189.168 114.033 185.538 112.704C185.656 112.51 185.771 112.314 185.88 112.115L185.947 112.167C185.959 112.175 185.97 112.183 185.982 112.191C186.348 112.42 186.885 112.307 187.185 112.049C188.035 111.324 187.747 110.518 187.18 109.765L187.106 109.669C186.413 108.789 185.795 107.859 185.154 106.947L184.754 106.376C183.679 104.853 182.55 103.32 181.118 102.06C180.454 101.476 179.728 101.04 178.959 100.714C179.025 100.589 178.448 100.331 178.284 100.461C175.846 99.6517 173.041 99.8221 170.383 100.044L169.877 98.5868ZM74.6031 232.639L77.9935 232.988C81.7221 233.372 85.452 233.744 89.1831 234.112L97.2861 234.91C97.3077 235.328 97.3637 235.738 97.3738 236.053C97.4259 237.682 97.4653 239.314 97.5035 240.943C97.5785 244.21 97.4959 247.481 97.2581 250.742C97.028 253.901 96.7255 257.061 96.2539 260.199L96.1585 260.827L96.1026 261.157C95.7174 261.191 95.3398 261.356 95.0258 261.696C94.3406 262.437 91.8591 261.717 90.8892 261.405C89.295 260.89 87.7949 260.022 86.4093 259.152C85.0566 258.302 83.8388 257.311 82.6679 256.267L81.7107 255.408C80.7585 254.55 79.8051 253.637 79.2216 252.559C78.4296 251.095 78.3279 249.3 78.0952 247.706C77.8092 245.747 77.4698 243.787 77.11 241.837L74.6031 232.639ZM172.997 212.069L173.349 212.152C186.12 215.226 198.872 218.391 211.682 221.33C218.022 222.784 224.391 224.134 230.739 225.56L231.766 225.792C236.773 226.939 241.841 228.318 245.675 231.61C245.817 231.731 246.022 231.544 245.889 231.415C241.756 227.43 235.879 225.743 230.236 224.28C229.193 224.01 228.148 223.746 227.105 223.477C234.779 220.999 242.575 218.842 250.551 217.304C252.605 216.908 254.683 216.617 256.735 216.22C258.166 215.943 259.564 215.541 260.98 215.208L262.094 214.955L262.109 218.144C262.127 222.661 262.118 227.174 261.864 231.691L261.816 232.527C261.519 237.553 261.056 242.685 259.087 247.423C257.487 251.275 254.937 254.903 251.602 257.708C249.915 259.128 248.1 260.232 245.858 260.777C243.775 261.284 241.594 261.344 239.453 261.208C229.186 260.56 220.046 255.507 211.127 251.323C196.539 244.48 181.949 237.641 167.346 230.825C167.742 230.58 168.113 230.298 168.451 229.982C170.409 228.149 171.442 225.642 172.121 223.213C172.843 220.627 173.274 217.856 173.325 215.186L172.997 212.069ZM154.416 233.465C154.288 233.403 154.138 233.482 154.133 233.614C154.087 234.624 154.704 235.621 155.164 236.531L155.212 236.628C155.773 237.755 156.384 238.868 157.019 239.963C158.285 242.15 159.6 244.315 160.975 246.448C163.736 250.741 166.806 254.852 170.433 258.59C171.253 259.434 172.6 258.352 172.074 257.442C169.539 253.061 166.583 248.923 163.541 244.821C162.018 242.767 160.497 240.712 158.959 238.668C158.317 237.815 157.667 236.965 156.999 236.127L156.597 235.627L154.416 233.465ZM2.95264 150.72C15.7681 151.072 28.5684 151.828 41.3229 153.015C53.185 154.119 65.0038 155.588 76.7553 157.418C79.2101 157.801 81.6611 158.199 84.1095 158.613L85.5791 158.863C88.0276 159.283 91.0188 159.457 93.199 160.642C95.4975 161.892 96.1191 164.503 96.8844 166.656C97.7832 169.189 98.6603 171.728 99.5121 174.274C102.899 184.383 105.992 194.578 108.752 204.841C110.121 209.935 111.336 215.057 112.616 220.17C113.754 224.713 115.01 229.205 116.321 233.701C116.159 233.587 115.961 233.501 115.722 233.455C109.209 232.2 102.562 231.655 95.9525 230.96L95.3131 230.892C88.475 230.165 81.6369 229.442 74.7963 228.744L29.4977 224.13C26.8268 223.857 23.9652 223.82 21.3655 223.171C16.9453 222.067 15.9093 217.59 15.1669 214.025L15.1452 213.916C12.9091 203.144 11.1293 192.279 9.04321 181.479L2.95264 150.72ZM115.267 221.179C117.026 221.074 119.433 219.615 120.767 219.72C120.067 220.785 119.75 221.999 120.155 223.295C121.277 226.905 126.358 225.037 128.806 223.934C130.812 223.031 132.749 221.923 134.971 221.5C137.487 221.021 139.192 221.928 141.319 222.972C143.064 223.831 144.966 224.447 146.922 224.766C147.962 224.936 148.95 224.953 149.936 224.888C149.995 224.931 150.062 224.972 150.139 225.008L150.66 225.256C148.302 225.354 145.899 226.014 143.705 226.617C141.43 227.242 139.198 227.996 136.977 228.767L134.792 229.527C129.403 231.397 123.825 233.173 117.992 233.157C117.573 233.156 117.23 233.261 116.959 233.432L115.267 221.179ZM125.106 209.871C123.37 209.679 121.765 209.885 120.377 210.909C118.703 212.146 117.578 214.195 115.171 214.33C114.47 214.369 114.306 215.262 115.004 215.449C116.796 215.93 118.247 215.051 119.467 213.912L120.287 213.135C121.493 212.003 122.606 211.128 124.654 211.196C126.845 211.269 129.041 211.727 131.218 211.96C133.686 212.225 136.152 212.45 138.627 212.644C138.743 212.653 138.762 212.49 138.654 212.466L135.883 211.841L125.106 209.871ZM126.783 203.437L126.497 203.411C123.974 203.189 121.666 203.18 119.414 204.409L118.981 204.647C116.95 205.766 114.738 207.083 113.468 208.894C113.261 209.191 113.604 209.539 113.951 209.463C116.393 208.933 118.178 207.311 120.231 206.096C122.536 204.733 124.916 204.957 127.543 205.169C130.087 205.374 132.63 205.656 135.149 206.04C137.516 206.401 139.891 206.97 142.281 207.152V207.147C142.554 207.147 142.709 206.775 142.431 206.649C140.005 205.551 137.195 205.032 134.555 204.53L126.783 203.437ZM213.174 141.286C213.177 141.105 212.897 141.037 212.798 141.194C211.157 143.811 210.299 147.018 209.424 149.901C208.508 152.919 207.769 155.97 207.105 159.043C205.76 165.264 205.043 171.451 204.994 177.792C204.987 178.697 206.616 178.938 206.775 178.01C207.832 171.842 208.845 165.667 209.911 159.501C210.447 156.4 211.071 153.31 211.668 150.217L213.174 141.286ZM196.923 145.844C197.044 145.482 196.464 145.361 196.316 145.692C193.021 153.018 191.906 161.32 194.021 169.049C194.344 170.232 196.256 169.719 196.012 168.552L196.923 145.844ZM154.429 139.334C154.447 139.064 154.059 139.022 153.913 139.207C152.353 141.2 151.705 143.868 148.966 144.898C147.599 145.412 146.06 145.322 144.853 146.19C144.044 146.772 143.425 147.688 144.031 148.568C144.227 148.852 144.774 148.995 145.04 148.686C145.427 148.236 145.632 147.697 146.158 147.36C146.901 146.885 147.901 146.855 148.752 146.631C149.853 146.342 150.822 145.836 151.617 145.085L154.429 139.334ZM128.352 106.101C128.19 106.027 128.037 106.074 127.934 106.2C127.786 106.38 127.804 106.555 127.984 106.678C127.744 107.123 127.461 108.238 127.42 108.4C127.255 109.058 127.081 109.712 126.897 110.365C126.529 111.683 126.205 113.012 125.836 114.33C125.444 115.728 124.978 117.11 124.459 118.473C124.425 118.562 124.388 118.652 124.35 118.743L124.29 118.881L124.276 118.86C124.171 118.709 123.951 118.815 123.976 118.974C124.002 119.12 124.033 119.264 124.061 119.41L124.007 119.54C123.667 120.368 123.435 121.241 124.057 121.972C124.29 122.245 124.547 122.406 124.866 122.454C125.38 123.985 126.022 125.487 126.711 126.929L126.911 127.35C127.925 129.455 129.004 131.533 130.617 133.324C132.377 135.28 134.798 136.617 136.331 138.76C137.045 139.757 137.542 140.805 137.943 141.931L138.096 142.359C138.382 143.156 138.711 143.927 139.536 144.394C139.799 144.543 140.194 144.496 140.406 144.293C142.097 142.672 140.327 139.646 139.306 138.076C137.889 135.895 135.838 134.498 133.784 132.852C131.569 131.078 130.157 128.704 128.79 126.366C127.954 124.933 127.145 123.47 126.295 122.031C127.183 121.319 127.468 119.905 127.77 118.923L127.796 118.835C128.295 117.262 128.69 115.648 128.939 114.026C129.179 112.467 129.28 110.932 129.216 109.364L129.198 108.964L128.352 106.101ZM125.048 113.521C125.244 113.277 124.918 113 124.65 113.051C123.011 113.358 121.411 114.256 119.94 114.983L119.784 115.06C118.61 115.633 117.429 116.335 116.813 117.449C116.143 118.659 116.199 120.053 116.29 121.369L116.298 121.492C116.411 123.069 116.429 124.708 116.797 126.257C116.985 127.05 117.777 127.273 118.455 127.086C119.262 129.392 121.526 131.091 123.182 132.911C125.291 135.232 124.894 138.364 124.673 141.158C124.584 142.29 126.137 142.611 126.937 142.008L128.781 140.621C129.088 140.389 129.395 140.157 129.701 139.924C129.962 139.724 130.222 139.524 130.48 139.32L130.864 139.011C131.034 138.873 131.787 138.112 132.007 138.081C132.539 138.004 133.805 139.276 134.239 139.674L134.294 139.725C135.108 140.449 135.846 141.229 136.532 142.055C136.658 142.207 136.905 142.08 136.815 141.905C136.199 140.712 135.485 139.571 134.636 138.504L134.464 138.291C133.9 137.601 133.142 136.384 132.144 136.18C130.927 135.932 129.712 137.038 128.826 137.652L128.77 137.69C128.348 137.976 127.932 138.268 127.517 138.561C127.56 136.481 127.27 134.379 126.084 132.585C125.247 131.321 123.995 130.384 122.924 129.297C121.73 128.087 121.107 126.601 120.026 125.34C119.888 125.178 119.696 125.091 119.489 125.063C119.447 124.05 119.281 123.028 119.154 122.025L119.117 121.725C118.989 120.636 118.685 119.307 119.274 118.287C119.829 117.323 121.104 116.644 122.049 115.99L122.821 115.448L125.048 113.521ZM178.203 102.007C178.695 102.265 179.156 102.587 179.574 102.988C180.89 104.253 181.832 105.828 182.748 107.342C183.241 108.158 183.716 108.982 184.213 109.796C184.429 110.15 184.652 110.5 184.877 110.85C184.981 111.011 185.29 111.331 185.443 111.528C185.272 111.744 185.097 111.957 184.918 112.167C184.849 112.247 180.127 116.908 178.481 118.731C175.96 121.524 173.708 124.475 171.782 127.634C169.896 130.726 168.46 134.001 166.713 137.153C165.839 138.732 164.862 140.298 163.618 141.665C163.569 141.718 163.519 141.768 163.469 141.821C162.995 140.659 161.777 139.413 161.179 138.698L161.123 138.631C159.767 136.975 158.334 135.369 156.872 133.79C155.535 132.348 154.165 130.938 152.761 129.55L152.234 129.031C151.256 128.075 150.014 126.642 148.583 125.959C148.735 125.711 148.913 125.466 149.116 125.224C150.458 123.637 152.354 122.484 154.226 121.445L155.438 120.776C160.011 118.251 164.514 115.609 168.484 112.328C170.584 110.593 172.656 108.774 174.422 106.75L175.046 106.034L178.203 102.007ZM170.571 100.757C172.713 100.92 175.026 100.881 177.005 101.513C175.246 103.02 173.573 104.647 171.855 106.179C171.703 105.143 171.39 104.12 171.124 103.109" fill="black"/>
    <path fill-rule="evenodd" clip-rule="evenodd" d="M148.67 4.92963C133.42 4.92963 117.647 15.6384 112.057 22.4719C107.357 28.2173 104.826 54.1972 104.826 71.755C104.826 75.4263 102.59 82.3487 103.242 85.8611C105.635 98.7319 116.055 109.527 136.681 109.527C157.307 109.527 172.097 102.12 187.427 82.2335C194.866 82.2335 198.471 77.0656 198.523 68.9103C198.576 60.755 191.343 57.7873 191.343 57.7873C191.343 57.7873 193.922 25.6019 187.427 17.2224C180.932 8.84279 163.919 4.92963 148.67 4.92963Z" fill="white"/>
    <path fill-rule="evenodd" clip-rule="evenodd" d="M155.086 0.37869C145.458 -0.504538 136.023 0.237549 126.534 1.77307C125.809 1.8921 125.397 2.32301 125.245 2.84095C120.775 3.02595 116.302 3.32297 111.838 3.54447C110.219 3.62471 109.3 5.07458 110.038 6.38388C110.186 6.64394 110.339 6.89698 110.494 7.15014L110.299 7.09165C108.956 6.70139 107.506 6.50901 106.198 7.12838C104.532 7.91674 103.88 9.65626 104.248 11.2572C104.342 11.666 104.501 12.0577 104.68 12.4399C104.315 12.4181 103.946 12.4253 103.581 12.4692C101.638 12.7028 100.192 14.0532 100.091 15.8513C99.9393 18.5664 101.87 21.3209 104.146 23.2648C103.815 23.8806 103.689 24.6056 103.827 25.3405C104.1 26.7931 105.281 27.6628 106.65 28.2303C106.079 29.8729 105.81 31.5903 105.969 33.3452C106.022 33.9312 106.588 34.4151 107.184 34.5339C104.959 40.0848 103.833 46.0445 103.023 51.8517C102.445 55.9834 102.16 60.139 102.126 64.3019C102.109 66.1819 102.144 68.063 102.23 69.943L102.266 70.6475C102.372 72.6794 102.379 74.8127 102.782 76.8227C101.406 78.9422 100.853 81.5727 100.619 83.9477C100.33 86.8868 100.788 89.918 101.812 92.7144C105.674 103.278 117.33 109.945 129.037 111.678C139.874 113.281 152.414 111.123 158.746 102.205C158.847 102.065 158.634 101.947 158.511 102.041C153.979 105.378 148.724 106.868 143.013 107.593C133.141 108.843 122.044 106.721 114.12 101.097C110.318 98.3957 107.576 94.4631 106.369 90.2323C105.754 88.0692 105.542 85.8139 105.784 83.5874C106.031 81.3298 107.135 79.4027 107.83 77.2683C108.064 76.5476 107.817 75.8787 107.33 75.4021C107.194 73.6695 106.871 71.9231 106.748 70.1951C106.611 68.2311 106.528 66.2682 106.498 64.3019C106.442 60.2242 106.63 56.1389 107.009 52.0782C107.702 44.6423 109.541 37.387 110.62 30.0142C111.021 30.3391 111.594 30.4724 112.194 30.1886L112.256 30.1578L112.584 29.9878C112.604 29.9878 112.624 29.9902 112.643 29.9924C114.885 30.1897 117.212 29.9075 119.36 29.3014C121.609 28.669 123.695 27.6958 125.559 26.3989C125.914 28.0264 126.061 29.6712 126.064 31.3306C126.066 32.3671 127.278 32.9051 128.24 32.4622C132.501 30.5009 136.573 28.2408 140.438 25.7006C140.889 27.7955 141.34 29.8902 141.794 31.9876C141.97 32.7956 143.105 33.1216 143.833 32.7372C146.728 31.2114 149.228 29.214 151.265 26.839C151.67 27.5432 152.079 28.2472 152.489 28.9497L153.107 30.0021C153.716 31.0362 154.533 32.18 155.868 32.5107C157.28 32.861 158.46 32.0315 158.934 30.8732C159.079 30.5133 159.214 30.1433 159.337 29.771C160.541 32.2603 161.9 34.6934 163.436 37.0147C165.741 40.4962 168.507 43.5985 171.266 46.781C172.103 47.7473 173.537 46.8248 173.653 45.8858C173.72 45.3336 173.776 44.7788 173.825 44.2262C175.431 47.1645 177.11 50.0753 178.936 52.9016L178.674 53.8303C177.921 56.5744 177.295 59.3378 176.614 62.0961C176.394 62.9872 176.916 64.2593 178.064 64.4113C179.436 64.592 180.733 65.2263 182.137 64.79C183.669 64.3134 183.972 63.1138 184.695 61.9776C184.84 61.7508 185.008 61.5424 185.188 61.3455L185.234 61.3996C185.346 61.5332 185.616 61.387 185.548 61.2339L185.469 61.0566C186.091 60.4591 186.834 59.9618 187.517 59.4253C189.142 59.1778 190.969 59.4495 192.088 60.0469C194.637 61.4089 195.808 64.2167 195.832 66.7989C195.861 69.8209 194.827 73.2171 193.082 75.8016C192.313 76.9379 191.261 77.9636 189.87 78.4679C188.489 78.9686 186.993 78.8132 185.589 79.2852C184.66 79.5995 184.087 80.5343 184.648 81.3805C184.686 81.4392 184.728 81.4921 184.769 81.5486L184.352 82.0505C184.065 82.3982 183.765 82.7712 183.485 83.1591C182.77 83.904 182.019 84.6212 181.291 85.3534C179.946 86.7038 178.64 88.091 177.317 89.461C176.067 90.7527 174.746 91.9672 173.385 93.1611C172.098 94.2927 170.491 95.2448 169.31 96.4513C168.161 97.629 167.848 99.6851 169.74 100.367C171.831 101.122 173.684 99.3512 175.092 98.1701L175.152 98.1206C177.732 95.9678 180.064 93.5087 181.915 90.801C183.749 91.9315 186.401 92.0398 188.228 90.9092C189.189 90.3141 189.926 89.3148 190.284 88.2269C190.622 88.2959 190.96 88.3351 191.289 88.3305C191.458 88.4203 191.628 88.5066 191.8 88.5872C193.162 89.2296 194.835 88.9429 195.458 87.5776C196.026 86.3377 195.441 84.9309 194.93 83.7359L194.824 83.4895C194.535 82.8092 194.215 82.0666 193.817 81.3678C194.924 80.6138 195.87 79.6767 196.67 78.6118C199.358 75.0222 200.701 69.7737 200.107 65.4923C199.75 62.9078 198.41 60.2311 196.216 58.4893L196.296 58.2994C196.911 56.8861 197.47 55.4673 197.833 53.9736C198.257 52.2266 198.464 50.4164 198.652 48.6378C199.049 44.881 198.942 41.039 198.413 37.2969C197.419 30.253 194.9 23.338 190.428 17.4766C191.696 16.1016 192.7 14.4836 192.177 12.6224C191.937 11.7682 191.392 10.9582 190.57 10.4689C190.117 10.1991 189.577 10.1577 189.123 9.93382L188.986 9.86578C188.787 9.76033 188.939 9.77149 189.058 9.28176C189.528 7.32524 189.139 5.43491 186.762 4.78527C184.525 4.17465 182.408 5.47141 181.085 7.01648C177.619 4.78999 173.054 3.62471 169.038 2.63442C164.473 1.51254 159.789 0.812014 155.086 0.37869ZM192.51 66C192.526 64.4067 190.858 63.4235 189.217 63.6848C188.115 63.8587 187.196 64.4539 186.332 65.0698L185.912 65.3714C184.86 66.1197 183.653 66.9256 183.027 67.9836C182.108 69.5458 184.049 71.6479 185.862 70.5531C187.106 69.7979 187.903 68.588 188.719 67.4643L188.803 67.3481C189.174 66.845 189.499 66.3097 190.007 65.9056L190.117 65.8181C190.283 65.6891 190.463 65.5717 190.678 65.5165C191.094 65.4082 191.864 65.5602 192.048 66.008L192.064 66.0541C192.131 66.2809 192.507 66.2314 192.51 66Z" fill="black"/>
    <path fill-rule="evenodd" clip-rule="evenodd" d="M134.63 91.4813C136.05 90.9023 137.317 89.9353 138.244 88.7003C138.566 88.2703 138.649 87.8173 138.582 87.4023C138.506 86.9363 138.23 86.5133 137.854 86.2303C137.477 85.9463 137.005 85.8053 136.549 85.8773C136.152 85.9393 135.758 86.1563 135.445 86.6063L135.38 86.6963C134.829 87.4423 134.112 88.0533 133.294 88.4483C132.506 88.8283 131.624 89.0053 130.712 88.9023C128.974 88.7063 127.777 87.7663 126.504 86.4893C126.346 86.3283 126.188 86.1623 126.03 85.9933C125.93 85.8403 125.79 85.7413 125.636 85.6903C125.465 85.6323 125.271 85.6363 125.093 85.6983C124.922 85.7573 124.769 85.8713 124.666 86.0223C124.569 86.1653 124.513 86.3423 124.531 86.5463C124.648 87.8683 125.339 89.0493 126.321 89.9763C127.412 91.0063 128.858 91.7183 130.219 91.9683C131.718 92.2433 133.246 92.0463 134.63 91.4813ZM129.511 71.0733C127.916 72.0433 125.485 74.3053 127.201 76.7103C129.222 78.8313 132.13 76.4003 133.563 75.3003C134.892 74.4483 136.386 76.6403 135.153 77.6353C124.796 85.3063 120.592 71.3273 128.704 69.9333C129.598 69.7793 129.929 70.7733 129.511 71.0733ZM148.071 62.1502C147.895 59.9614 144.563 59.4643 144.231 61.6303C143.935 63.5703 144.284 65.3523 145.158 67.0993C145.992 68.7683 148.09 67.9903 148.249 66.4703C148.462 64.4333 148.181 63.5113 148.071 62.1502ZM122.706 61.1811C122.241 60.5725 121.57 60.1569 120.767 60.3918C118.256 61.1258 118.996 64.6923 119.878 66.4273C120.357 67.3703 121.906 67.6093 122.606 66.7793C123.747 65.4263 124.293 62.7229 122.843 61.3898C122.803 61.3209 122.759 61.2513 122.706 61.1811ZM145.193 52.5727L144.796 52.5032C143.569 52.2909 142.044 52.0869 141.176 53.0738C140.715 53.5971 140.557 54.5697 141.176 55.0706C142.264 55.9519 143.468 55.6104 144.772 55.685C145.847 55.7467 146.88 55.9247 147.915 56.2208C150.187 56.8703 152.038 58.0559 153.978 59.3579C154.232 59.5286 154.492 59.2029 154.371 58.9647C153.251 56.7703 151.081 54.9677 148.907 53.8689C147.746 53.2824 146.477 52.7958 145.193 52.5727ZM124.995 51.5896L124.691 51.6518C121.387 52.3426 117.095 53.7226 115.531 56.9688C115.471 57.4278 115.534 57.5262 115.585 57.5905L115.602 57.6119C115.645 57.6668 115.678 57.7424 115.877 57.8049C115.932 57.7917 115.988 57.7778 116.044 57.763C116.762 57.575 117.329 57.316 117.878 57.0473L118.474 56.7538C119.165 56.4149 119.862 56.0883 120.601 55.8472C122.177 55.3327 123.799 54.9704 125.445 54.7769C125.802 54.735 126.146 54.6145 126.417 54.4079C126.674 54.2119 126.871 53.9405 126.961 53.5797C127.077 53.1129 127.043 52.7594 126.793 52.3382C126.605 52.0219 126.335 51.8026 126.026 51.6767C125.711 51.5484 125.352 51.5181 124.995 51.5896Z" fill="black"/>
</svg>