<?xml version="1.0" encoding="UTF-8"?>
<!DOCTYPE svg PUBLIC "-//W3C//DTD SVG 1.1//EN" "http://www.w3.org/Graphics/SVG/1.1/DTD/svg11.dtd">
<svg xmlns="http://www.w3.org/2000/svg" version="1.1" width="602px" height="136px" style="shape-rendering:geometricPrecision; text-rendering:geometricPrecision; image-rendering:optimizeQuality; fill-rule:evenodd; clip-rule:evenodd" xmlns:xlink="http://www.w3.org/1999/xlink">
<g><path style="opacity:1" fill="#050505" d="M 29.5,-0.5 C 35.8333,-0.5 42.1667,-0.5 48.5,-0.5C 53.02,1.09328 57.3533,3.25995 61.5,6C 65.496,9.16289 69.1627,12.6629 72.5,16.5C 78.8962,8.41704 86.8962,2.75037 96.5,-0.5C 102.833,-0.5 109.167,-0.5 115.5,-0.5C 131.55,5.38665 141.383,16.72 145,33.5C 147.624,50.0013 144.124,65.0013 134.5,78.5C 124.188,79.4986 113.855,79.8319 103.5,79.5C 101.1,62.4363 98.2672,45.4363 95,28.5C 94,27.1667 93,27.1667 92,28.5C 88.5619,43.8587 85.0619,59.1921 81.5,74.5C 79.2184,71.5819 76.7184,68.9152 74,66.5C 69.5943,72.9694 65.4277,79.6361 61.5,86.5C 60.2011,85.91 59.3678,84.91 59,83.5C 54.8402,71.8459 50.0068,60.5126 44.5,49.5C 43.5224,49.9767 42.6891,50.6433 42,51.5C 37.9301,60.5424 33.7634,69.5424 29.5,78.5C 23.1667,79.8333 16.8333,79.8333 10.5,78.5C 5.66164,70.9619 1.99497,62.9619 -0.5,54.5C -0.5,47.5 -0.5,40.5 -0.5,33.5C 3.43669,16.8922 13.4367,5.5589 29.5,-0.5 Z"/></g>
<g><path style="opacity:0.922" fill="#000000" d="M 307.5,29.5 C 325.345,28.6895 335.678,37.0228 338.5,54.5C 333.5,54.5 328.5,54.5 323.5,54.5C 320.894,42.2598 313.894,39.0931 302.5,45C 298.086,51.077 296.419,57.9103 297.5,65.5C 296.871,72.2096 298.037,78.543 301,84.5C 306.791,89.1796 312.958,89.6796 319.5,86C 321.902,83.2966 323.235,80.1299 323.5,76.5C 328.5,76.5 333.5,76.5 338.5,76.5C 337.525,88.6434 331.192,96.4768 319.5,100C 296.885,103.711 284.385,94.2106 282,71.5C 279.832,57.3413 283.665,45.1746 293.5,35C 297.931,32.2737 302.598,30.4404 307.5,29.5 Z"/></g>
<g><path style="opacity:0.93" fill="#000000" d="M 427.5,29.5 C 446.06,29.2287 456.894,38.2287 460,56.5C 460.973,65.2985 460.306,73.9652 458,82.5C 451.284,97.4424 439.784,103.276 423.5,100C 410.851,96.2401 403.684,87.7401 402,74.5C 399.045,59.2259 402.878,46.0592 413.5,35C 418.017,32.4455 422.684,30.6121 427.5,29.5 Z M 426.5,42.5 C 437.695,41.8538 443.862,47.1871 445,58.5C 445.942,65.9866 445.275,73.32 443,80.5C 436.137,90.2897 428.47,90.9564 420,82.5C 416.182,72.7439 415.515,62.7439 418,52.5C 419.687,48.0842 422.52,44.7508 426.5,42.5 Z"/></g>
<g><path style="opacity:0.926" fill="#000000" d="M 155.5,30.5 C 161.093,30.1934 166.593,30.5268 172,31.5C 176.847,47.891 181.847,64.2243 187,80.5C 192.148,63.9044 196.981,47.2378 201.5,30.5C 207.206,30.1712 212.872,30.5046 218.5,31.5C 210.667,53.8333 202.833,76.1667 195,98.5C 189.593,99.4732 184.093,99.8066 178.5,99.5C 170.636,76.5738 162.969,53.5738 155.5,30.5 Z"/></g>
<g><path style="opacity:0.935" fill="#000000" d="M 240.5,30.5 C 245.099,30.2 249.599,30.5333 254,31.5C 262.5,53.8333 271,76.1667 279.5,98.5C 274.167,99.8333 268.833,99.8333 263.5,98.5C 261.758,94.2746 260.424,89.9413 259.5,85.5C 251.493,85.3336 243.493,85.5003 235.5,86C 233.833,90.3333 232.167,94.6667 230.5,99C 225.167,99.6667 219.833,99.6667 214.5,99C 223.268,76.1938 231.935,53.3604 240.5,30.5 Z M 246.5,50.5 C 249.541,57.9537 252.208,65.6204 254.5,73.5C 249.456,73.8275 244.456,73.4941 239.5,72.5C 242.241,65.2765 244.575,57.9432 246.5,50.5 Z"/></g>
<g><path style="opacity:0.91" fill="#000000" d="M 341.5,30.5 C 360.167,30.5 378.833,30.5 397.5,30.5C 397.5,34.8333 397.5,39.1667 397.5,43.5C 390.5,43.5 383.5,43.5 376.5,43.5C 376.5,62.1667 376.5,80.8333 376.5,99.5C 371.5,99.5 366.5,99.5 361.5,99.5C 361.5,80.8333 361.5,62.1667 361.5,43.5C 354.833,43.5 348.167,43.5 341.5,43.5C 341.5,39.1667 341.5,34.8333 341.5,30.5 Z"/></g>
<g><path style="opacity:0.926" fill="#000000" d="M 469.5,30.5 C 474.5,30.5 479.5,30.5 484.5,30.5C 484.5,49.5 484.5,68.5 484.5,87.5C 494.5,87.5 504.5,87.5 514.5,87.5C 514.5,91.5 514.5,95.5 514.5,99.5C 499.5,99.5 484.5,99.5 469.5,99.5C 469.5,76.5 469.5,53.5 469.5,30.5 Z"/></g>
<g><path style="opacity:0.931" fill="#000000" d="M 522.5,30.5 C 527.5,30.5 532.5,30.5 537.5,30.5C 537.5,53.5 537.5,76.5 537.5,99.5C 532.5,99.5 527.5,99.5 522.5,99.5C 522.5,76.5 522.5,53.5 522.5,30.5 Z"/></g>
<g><path style="opacity:0.93" fill="#000000" d="M 601.5,75.5 C 601.5,78.5 601.5,81.5 601.5,84.5C 599.534,90.6424 595.534,95.1424 589.5,98C 576.227,99.4245 562.894,99.9245 549.5,99.5C 549.5,76.5 549.5,53.5 549.5,30.5C 559.506,30.3335 569.506,30.5002 579.5,31C 597.393,33.2088 603.227,42.7088 597,59.5C 595.457,61.3783 593.624,62.8783 591.5,64C 596.829,66.1938 600.162,70.0271 601.5,75.5 Z M 564.5,43.5 C 569.844,43.334 575.177,43.5006 580.5,44C 583.516,45.5286 584.849,48.0286 584.5,51.5C 584.881,54.3247 583.881,56.4913 581.5,58C 575.928,59.3507 570.262,59.8507 564.5,59.5C 564.5,54.1667 564.5,48.8333 564.5,43.5 Z M 564.5,70.5 C 570.176,70.3339 575.843,70.5006 581.5,71C 586.609,74.3662 587.776,78.8662 585,84.5C 584.097,85.7014 582.931,86.5348 581.5,87C 575.843,87.4994 570.176,87.6661 564.5,87.5C 564.5,81.8333 564.5,76.1667 564.5,70.5 Z"/></g>
<g><path style="opacity:1" fill="#090909" d="M 73.5,135.5 C 72.5,135.5 71.5,135.5 70.5,135.5C 57.8593,123.862 45.1926,112.195 32.5,100.5C 31.5,97.5 29.5,95.5 26.5,94.5C 23.0005,91.1691 19.3338,88.0024 15.5,85C 17.8098,84.5034 20.1432,84.3367 22.5,84.5C 26.3293,85.069 29.6627,84.4023 32.5,82.5C 36.0462,74.3607 39.8796,66.3607 44,58.5C 49.2956,70.2596 54.4622,82.093 59.5,94C 60.635,94.7494 61.635,94.5827 62.5,93.5C 66.04,86.919 69.7067,80.419 73.5,74C 74.4491,73.3828 75.2825,73.5494 76,74.5C 77.7653,77.0321 79.2653,79.6987 80.5,82.5C 81.0527,84.5518 82.0527,84.8852 83.5,83.5C 86.7931,70.658 89.9597,57.658 93,44.5C 95.7602,57.0583 98.0936,69.725 100,82.5C 109.731,83.9033 119.564,84.7366 129.5,85C 110.638,101.699 91.9717,118.532 73.5,135.5 Z"/></g>
<g><path style="opacity:0.596" fill="#666666" d="M 32.5,82.5 C 29.6627,84.4023 26.3293,85.069 22.5,84.5C 25.7254,83.7632 29.0588,83.0965 32.5,82.5 Z"/></g>
<g><path style="opacity:0.047" fill="#747474" d="M 80.5,82.5 C 81.391,83.1098 82.391,83.4431 83.5,83.5C 82.0527,84.8852 81.0527,84.5518 80.5,82.5 Z"/></g>
<g><path style="opacity:0.843" fill="#5f5f5f" d="M 26.5,94.5 C 29.5,95.5 31.5,97.5 32.5,100.5C 30.1667,98.8333 28.1667,96.8333 26.5,94.5 Z"/></g>
</svg>
