<svg width="110" height="110" viewBox="0 0 121 113" fill="none" xmlns="http://www.w3.org/2000/svg">
    <path d="M60.5 9.41675C33.1691 9.41675 10.0833 30.9762 10.0833 56.5001C10.0833 82.024 33.1691 103.583 60.5 103.583C87.8309 103.583 110.917 82.024 110.917 56.5001C110.917 30.9762 87.8309 9.41675 60.5 9.41675ZM60.5 32.9584C69.2069 32.9584 75.625 38.9474 75.625 47.0834C75.625 55.2194 69.2069 61.2084 60.5 61.2084C51.7981 61.2084 45.375 55.2194 45.375 47.0834C45.375 38.9474 51.7981 32.9584 60.5 32.9584ZM34.7572 78.9682C39.2796 72.7532 46.8219 68.6099 55.4583 68.6099H65.5416C74.1831 68.6099 81.7204 72.7532 86.2427 78.9682C79.7995 85.4092 70.6589 89.4584 60.5 89.4584C50.341 89.4584 41.2005 85.4092 34.7572 78.9682Z" fill="black"/>
</svg>
